<svg xmlns="http://www.w3.org/2000/svg" xmlns:xlink="http://www.w3.org/1999/xlink"
  style="position:absolute;width:0;height:0;overflow:hidden" aria-hidden="true">
  <defs>
    <symbol id="Visa" viewBox="0 0 28 9">
      <path fill="#1434cb"
        d="M13.81.16l-1.86 8.71h-2.25l1.86-8.71zm9.48 5.62l1.19-3.27.68 3.27zm2.52 3.09h2.08l-1.82-8.71h-1.92c-.43 0-.8.25-.96.64l-3.38 8.07h2.37l.47-1.3h2.89zm-5.88-2.84c0-2.3-3.18-2.43-3.16-3.45.01-.32.3-.65.96-.73a8.3 8.3 0 012.22.39l.4-1.85A6.6 6.6 0 0018.23 0c-2.23 0-3.8 1.18-3.81 2.88-.01 1.25 1.12 1.95 1.97 2.37.88.43 1.17.7 1.17 1.08 0 .59-.7.84-1.35.85a7.3 7.3 0 01-2.31-.55l-.41 1.91c.53.24 1.5.45 2.5.46 2.37 0 3.92-1.17 3.92-2.98zM10.59.16L6.94 8.87H4.56L2.76 1.92C2.65 1.49 2.55 1.33 2.22 1.15A4 4 0 000 .41l.05-.25h3.84c.49 0 .93.32 1.04.89l.95 5.04 2.34-5.93z" />
    </symbol>
    <symbol id="cross" viewBox="0 0 20 20">
      <path fill="currentColor"
        d="M16.2882 14.9617c0.1762 0.1761 0.2751 0.415 0.2751 0.6641s-0.0989 0.4879-0.2751 0.664c-0.1761 0.1762-0.4149 0.2751-0.664 0.2751s-0.488-0.0989-0.6641-0.2751L10 11.3281 5.0383 16.2883c-0.1762 0.1761-0.415 0.275-0.6641 0.275-0.2491 0-0.488-0.0989-0.6641-0.275s-0.275-0.415-0.275-0.6641 0.0989-0.4879 0.275-0.664L8.6718 10 3.7117 5.0383c-0.1761-0.1761-0.2751-0.415-0.2751-0.6641s0.099-0.4879 0.2751-0.664 0.415-0.2751 0.6641-0.2751 0.4879 0.0989 0.664 0.2751L10 8.6719l4.9617-4.9625c0.1761-0.1761 0.415-0.2751 0.664-0.2751 0.2491 0 0.488 0.099 0.6641 0.2751s0.2751 0.415 0.2751 0.664-0.099 0.488-0.2751 0.6641L11.3281 10z" />
    </symbol>
    <symbol id="Mastercard" viewBox="0 0 22 14" fill="#f79e1b">
      <path fill="#ff5f00" d="M13.82 1.44h-5.88v10.57h5.88z" />
      <path fill="#eb001b"
        d="M8.31 6.72a6.5 6.5 0 011.35-3.8 6.2 6.2 0 012.57-2.18 7.3 7.3 0 00-4.79-.7 6.6 6.6 0 00-3.66 2.64 6.7 6.7 0 000 7.91 6.6 6.6 0 003.66 2.64 7.3 7.3 0 004.79-.7 6.2 6.2 0 01-2.57-2.18 6.5 6.5 0 01-1.35-3.8z" />
      <path
        d="M21.76 6.72a6.7 6.7 0 01-1.03 3.57 6.5 6.5 0 01-2.76 2.48 6.8 6.8 0 01-3.65.64 7.3 7.3 0 01-3.44-1.4 6.3 6.3 0 001.89-2.35c.45-.91.68-1.92.68-2.94s-.23-2.02-.68-2.94a6.3 6.3 0 00-1.89-2.35 7.3 7.3 0 013.44-1.4 6.8 6.8 0 013.65.64 6.5 6.5 0 012.76 2.48 6.7 6.7 0 011.03 3.57z" />
      <path
        d="M21.12 10.89v-.22h.08v-.04h-.22v.04h.08v.22zm.43 0v-.26h-.07l-.08.18-.08-.18h-.07v.26h.05v-.2l.07.17h.05l.08-.17v.2z" />
    </symbol>
    <symbol id="Paypal" viewBox="0 0 30 8" clip-rule="evenodd" fill-rule="evenodd">
      <path fill="#253b80"
        d="M3.55 0H1.25c-.16 0-.3.11-.32.27L0 6.18c-.02.11.07.22.19.22h1.1c.16 0 .3-.11.32-.27l.25-1.59c.02-.16.16-.27.32-.27h.73c1.52 0 2.39-.73 2.62-2.19.1-.64 0-1.14-.3-1.49C4.9.2 4.32 0 3.55 0zm.27 2.16c-.13.82-.76.83-1.37.83h-.35l.25-1.55c.01-.09.09-.16.19-.16h.16c.41 0 .8 0 1.01.24.12.14.16.35.11.64zm6.62-.03h-1.1c-.1 0-.18.07-.19.16l-.06.31-.08-.11a2.1 2.1 0 00-1.3-.47c-1.22 0-2.26.92-2.46 2.22-.1.64.05 1.26.41 1.7.34.39.82.56 1.39.56.98 0 1.53-.63 1.53-.63l-.05.31c-.02.11.07.22.19.22h.99c.16 0 .3-.11.32-.27l.6-3.77c.02-.12-.07-.22-.19-.22zm-1.54 2.15c-.11.63-.61 1.05-1.25 1.05-.32 0-.58-.1-.74-.3-.16-.19-.22-.46-.17-.77.1-.63.61-1.06 1.23-1.06.32 0 .57.1.74.3.17.2.24.48.19.78zm6.3-2.15h1.1c.16 0 .25.17.16.3l-3.69 5.32c-.06.09-.16.14-.26.14h-1.1c-.16 0-.25-.18-.16-.3l1.15-1.62-1.22-3.59c-.04-.12.05-.25.18-.25h1.09c.14 0 .27.09.31.23l.65 2.16 1.53-2.25c.06-.09.16-.14.26-.14z" />
      <path fill="#179bd7"
        d="M27.23 6.18l.94-6.02c.02-.11.1-.16.2-.16h1.06c.12 0 .2.1.19.22l-.94 5.9c-.03.16-.16.28-.32.28h-.95c-.12 0-.21-.1-.19-.22zM19.99 0h-2.3c-.16 0-.3.11-.32.27L16.43 6.18c-.02.11.07.22.19.22h1.18c.11 0 .2-.08.22-.19l.26-1.67c.03-.16.16-.27.32-.27h.73c1.52 0 2.39-.73 2.62-2.19.1-.64 0-1.14-.3-1.49C21.34.2 20.76 0 19.99 0zm.26 2.16c-.12.82-.75.83-1.37.83h-.34L18.78 1.45c.01-.09.1-.16.19-.16h.16c.41 0 .8 0 1.01.24.12.14.16.35.11.64zm6.62-.03h-1.1c-.1 0-.18.07-.19.16l-.05.31-.08-.11a2.1 2.1 0 00-1.3-.47c-1.22 0-2.26.92-2.46 2.22-.1.64.04 1.26.41 1.7.34.39.81.56 1.39.56.98 0 1.53-.63 1.53-.63l-.05.31c-.02.11.07.22.19.22h.99c.16 0 .3-.11.32-.27l.6-3.77c.02-.12-.07-.22-.19-.22zm-1.54 2.15c-.1.63-.6 1.05-1.24 1.05-.32 0-.58-.1-.74-.3-.16-.19-.23-.46-.17-.77.1-.63.6-1.06 1.23-1.06.32 0 .57.1.74.3.17.2.24.48.19.78z" />
    </symbol>
    <symbol id="Pay" viewBox="0 0 23 10" fill="currentColor">
      <path
        d="M4.2793 1.2386C4.5459 0.9052 4.7268 0.4575 4.6791 0 4.2888 0.0194 3.8126 0.2574 3.5369 0.5911 3.2894 0.8769 3.0703 1.3433 3.1274 1.7817c0.438 0.0379 0.8757-0.219 1.1519-0.5431z" />
      <path
        d="M4.6741 1.8672C4.0379 1.8293 3.497 2.2283 3.1932 2.2283c-0.3039 0-0.7691-0.342-1.2723-0.3327C1.266 1.9052 0.6583 2.2755 0.326 2.8644-0.3576 4.0425 0.1456 5.7902 0.8103 6.7497 1.1331 7.2244 1.5222 7.7471 2.0348 7.7283c0.4843-0.019 0.6741-0.3136 1.2629-0.3136 0.5883 0 0.7593 0.3136 1.272 0.3041 0.5316-95e-4 0.864-0.4749 1.1868-0.9501 0.3704-0.5411 0.522-1.0637 0.5315-1.0924-95e-4-95e-4-1.0252-0.3991-1.0347-1.5675-95e-4-0.9783 0.7975-1.4436 0.8354-1.4724C5.633 1.9623 4.921 1.8863 4.6741 1.8672z" />
      <path
        d="M10.2132 0.5433c1.3827 0 2.3455 0.9531 2.3455 2.3407 0 1.3926-0.9826 2.3506-2.3801 2.3506l-1.5309 0 0 2.4346-1.1061 0 0-7.1259zM8.6477 4.3062l1.2691 0c0.963 0 1.5111-0.5184 1.5111-1.4172 0-0.8987-0.5481-1.4123-1.5061-1.4123l-1.2741 0z" />
      <path
        d="M12.8477 6.1927c0-0.9087 0.6963-1.4667 1.9309-1.5359l1.4222-0.0839v-0.4c0-0.5779-0.3902-0.9235-1.0419-0.9235-0.6174 0-1.0026 0.2962-1.0964 0.7605l-1.0073 0c0.0592-0.9384 0.8591-1.6297 2.1431-1.6297 1.2593 0 2.0641 0.6667 2.0641 1.7086v3.5803l-1.0222 0V6.8149l-0.0246 0c-0.3012 0.5778-0.958 0.9431-1.6395 0.9431-1.0173-1e-4-1.7284-0.6322-1.7284-1.5654zM16.2008 5.7236V5.3137l-1.2791 0.0789c-0.637 0.0444-0.9975 0.3259-0.9975 0.7703 0 0.4542 0.3753 0.7505 0.9482 0.7505 0.7456 0 1.3284-0.5136 1.3284-1.19z" />
      <path
        d="M18.2275 9.5803V8.7161c0.0789 0.0197 0.2566 0.0197 0.3456 0.0197 0.4938 0 0.7605-0.2074 0.9234-0.7407 0-99e-4 0.0939-0.316 0.0939-0.321l-1.8765-5.2 1.1554 0 1.3137 4.2272 0.0197 0 1.3137-4.2272 1.1259 0-1.9458 5.4666c-0.4443 1.2594-0.9579 1.6643-2.0344 1.6643-0.089 0-0.3557-99e-4-0.4346-0.0247z" />
    </symbol>
    <symbol id="GPay" viewBox="0 0 25 10" fill="#3c4043">
      <path
        d="M11.43 7.5h-.9V.51h2.38c.6 0 1.12.2 1.54.6.43.4.65.9.65 1.48 0 .59-.22 1.08-.65 1.48-.42.4-.93.6-1.54.6h-1.48zm0-6.13V3.8h1.5c.36 0 .66-.12.89-.36.24-.24.36-.53.36-.86 0-.32-.12-.61-.36-.85-.23-.25-.53-.37-.89-.37h-1.5zM17.45 2.56c.66 0 1.19.18 1.57.53s.58.84.58 1.46v2.95h-.86V6.84h-.04c-.37.55-.86.82-1.48.82-.53 0-.97-.15-1.33-.47-.35-.31-.53-.7-.53-1.17 0-.5.19-.89.56-1.18.38-.29.88-.44 1.5-.44.53 0 .97.1 1.32.29V4.49c0-.31-.12-.58-.37-.8s-.54-.33-.87-.33c-.5 0-.9.21-1.19.64l-.73-.56c.44-.63 1.08-.95 1.93-.95zm-1.17 3.47c0 .24.1.43.3.59.2.15.43.23.7.23.38 0 .71-.14 1.01-.42.29-.28.44-.61.44-.99-.28-.22-.67-.33-1.17-.33-.36 0-.67.09-.91.26-.25.18-.37.4-.37.66zM24.48 2.71L21.48 9.6h-.92l1.11-2.41-1.97-4.48h.98l1.42 3.44h.02l1.38-3.44z" />
      <path fill="#4285f4"
        d="M7.85 4.1c0-.29-.02-.57-.07-.84h-3.77v1.54h2.17c-.09.52-.37.95-.81 1.25v1h1.29c.76-.7 1.19-1.73 1.19-2.95z" />
      <path fill="#34a853"
        d="M5.37 6.05c-.36.24-.82.38-1.36.38-1.05 0-1.93-.7-2.25-1.65H.43v1.03A4 4 0 004.01 8.02c1.08 0 1.99-.36 2.66-.97z" />
      <path fill="#fabb05"
        d="M1.63 4.01c0-.27.05-.53.13-.77V2.21H.43A4 4 0 000 4.01c0 .64.15 1.26.43 1.8l1.33-1.03c-.08-.24-.13-.5-.13-.77z" />
      <path fill="#e94235"
        d="M4.01 1.59c.59 0 1.12.2 1.54.6l1.14-1.14A4 4 0 004.01 0C2.44 0 1.09.9 0.43 2.21l1.33 1.03c.32-.95 1.2-1.65 2.25-1.65z" />
    </symbol>
    <symbol id="Frame6" viewBox="0 0 20 20">
      <path fill="currentColor" fill-opacity=".4"
        d="M17.5 3.44h-15c-.25 0-.49.1-.66.27-.18.18-.28.42-.28.67V15c0 .41.17.81.46 1.1.29.3.69.46 1.1.46h13.75c.41 0 .81-.16 1.1-.46.3-.29.46-.69.46-1.1V4.38c0-.25-.1-.49-.27-.66s-.42-.28-.67-.28zM10 9.98L4.91 5.31h10.18zm-2.75.02L3.44 13.49V6.51zm1.39 1.27l.73.67c.17.16.4.25.63.25s.46-.09.63-.25l.73-.67 3.73 3.42H4.91zm4.11-1.27l3.82-3.49v6.99z" />
    </symbol>
    <symbol id="arrow-slider" viewBox="0 0 24 24">
      <path fill="currentColor"
        d="M9.7 4.45l-6.75 6.75c-.1.1-.19.23-.24.37-.06.14-.09.28-.09.43 0 .15.03.29.09.43.05.14.14.26.24.37l6.75 6.75c.21.21.5.33.8.33s.58-.12.8-.33c.21-.21.33-.5.33-.8s-.12-.58-.33-.8L6.47 13.12H20.25c.3 0 .58-.12.8-.33.21-.21.33-.5.33-.8s-.12-.58-.33-.8c-.21-.21-.5-.33-.8-.33H6.47l4.83-4.83c.21-.21.33-.5.33-.8s-.12-.58-.33-.8c-.21-.21-.5-.33-.8-.33s-.59.12-.8.33z" />
    </symbol>


    <symbol id="github" viewBox="0 0 13 13">
      <path fill="currentColor" fill-rule="evenodd" clip-rule="evenodd"
        d="M6.48 0C2.89 0 0 2.89 0 6.48c0 2.86 1.86 5.29 4.43 6.16.32.05.43-.14.43-.32 0-.16 0-.57 0-1.11-1.81.41-2.19-.86-2.19-.86-.3-.76-.73-.95-.73-.95-.6-.4.05-.4.05-.4.65.05 1 .68 1 .68.57 1 1.51.7 1.89.54.05-.43.22-.7.4-.86-1.43-.16-2.94-.73-2.94-3.21 0-.7.24-1.3.67-1.73-.06-.16-.3-.81.06-1.73 0 0 .54-.16 1.78.68.51-.14 1.08-.22 1.62-.22s1.11.08 1.62.22c1.24-.84 1.78-.68 1.78-.68.35.89.14 1.54.06 1.73.4.46.67 1.03.67 1.73 0 2.48-1.51 3.02-2.97 3.19.24.19.43.59.43 1.19 0 .86 0 1.56 0 1.78 0 .16.11.38.46.32 2.56-.84 4.43-3.27 4.43-6.13C12.96 2.89 10.07 0 6.48 0z" />
    </symbol>
    <symbol id="star" viewBox="0 0 104 104">
      <path fill="currentColor"
        d="M52 0c1.765 27.955 24.045 50.235 52 52-27.955 1.765-50.235 24.045-52 52-1.765-27.955-24.045-50.235-52-52 27.955-1.765 50.235-24.045 52-52" />
    </symbol>
    <symbol id="instagram" viewBox="0 0 14 14" fill="currentColor">
      <path
        d="M6.774 1.22c1.809 0 2.023 7e-3 2.738 0.04 0.43 5e-3 0.855 0.084 1.258 0.233a2.24 2.24 0 0 1 1.286 1.286c0.149 0.403 0.228 0.828 0.233 1.258 0.032 0.715 0.04 0.929 0.04 2.738s-8e-3 2.022-0.04 2.737c-5e-3 0.43-0.084 0.855-0.233 1.258a2.24 2.24 0 0 1-1.286 1.286c-0.403 0.149-0.829 0.228-1.258 0.233-0.715 0.032-0.929 0.04-2.738 0.04s-2.023-7e-3-2.737-0.04a3.8 3.8 0 0 1-1.258-0.233 2.24 2.24 0 0 1-1.286-1.286 3.8 3.8 0 0 1-0.233-1.258C1.227 8.797 1.22 8.583 1.22 6.775c0-1.81 7e-3-2.023 0.04-2.738 5e-3-0.43 0.084-0.855 0.233-1.258a2.24 2.24 0 0 1 1.286-1.286C3.182 1.344 3.607 1.265 4.037 1.26 4.751 1.228 4.965 1.22 6.774 1.22M6.774 0c-1.839 0-2.07 8e-3-2.793 0.04a5 5 0 0 0-1.645 0.315c-0.452 0.17-0.86 0.437-1.199 0.782a3.3 3.3 0 0 0-0.782 1.2 5 5 0 0 0-0.315 1.645C8e-3 4.704 0 4.935 0 6.774s8e-3 2.07 0.04 2.793c0.012 0.562 0.118 1.119 0.315 1.645 0.17 0.452 0.437 0.862 0.782 1.2 0.338 0.345 0.748 0.611 1.2 0.781a5 5 0 0 0 1.645 0.315c0.723 0.033 0.953 0.041 2.793 0.041s2.07-8e-3 2.793-0.04a5 5 0 0 0 1.645-0.316 3.47 3.47 0 0 0 1.98-1.981 5 5 0 0 0 0.315-1.646c0.033-0.721 0.04-0.953 0.04-2.792s-7e-3-2.07-0.04-2.793a5 5 0 0 0-0.315-1.645 3.3 3.3 0 0 0-0.782-1.2 3.3 3.3 0 0 0-1.2-0.781 5 5 0 0 0-1.644-0.315C8.845 8e-3 8.613 0 6.774 0" />
      <path
        d="M6.776 3.297a3.479 3.479 0 1 0 0 6.957 3.479 3.479 0 0 0 0-6.957M6.776 9.034a2.258 2.258 0 1 1 0-4.516 2.258 2.258 0 0 1 0 4.516M10.391 3.972a0.813 0.813 0 1 0 0-1.626 0.813 0.813 0 0 0 0 1.626" />
    </symbol>
    <symbol id="arrow" viewBox="0 0 16 16">
      <path fill="currentColor"
        d="M13.53 6.53l-5 5a0.75 0.75 0 0 1-1.062 0l-5-5a0.751 0.751 0 1 1 1.063-1.062L8 9.938l4.47-4.47a0.751 0.751 0 0 1 1.06 1.062z" />
    </symbol>
    <symbol id="mail" viewBox="0 0 20 20">
      <path fill="currentColor" fill-opacity="0.4"
        d="M17.5 3.438h-15a0.937 0.937 0 0 0-0.937 0.937V15a1.563 1.563 0 0 0 1.562 1.563h13.75A1.563 1.563 0 0 0 18.438 15V4.375A0.94 0.94 0 0 0 17.5 3.438M10 9.978 4.91 5.313h10.18zM7.25 10 3.438 13.494V6.506zM8.637 11.272l0.73 0.67a0.937 0.937 0 0 0 1.267 0l0.73-0.67 3.726 3.415H4.91zM12.75 10l3.812-3.494v6.988z" />
    </symbol>
    <symbol id="check" viewBox="0 0 24 24">
      <path fill="currentColor"
        d="M12 2.25A9.75 9.75 0 1 0 21.75 12 9.76 9.76 0 0 0 12 2.25M16.28 10.28l-5.25 5.25a0.747 0.747 0 0 1-1.06 0l-2.25-2.25a0.75 0.75 0 1 1 1.06-1.06l1.72 1.72 4.72-4.72a0.751 0.751 0 0 1 1.06 1.06" />
    </symbol>
    <symbol id="search" viewBox="0 0 24 24">
      <path fill="currentColor"
        d="M21.796 20.204 17.344 15.75a8.636 8.636 0 1 0-1.594 1.594l4.456 4.457a1.126 1.126 0 1 0 1.59-1.597zM4.125 10.5a6.375 6.375 0 1 1 6.375 6.375 6.38 6.38 0 0 1-6.375-6.375" />
    </symbol>
    <symbol id="avatar" viewBox="0 0 24 24">
      <path fill="currentColor"
        d="M12 1.875A10.125 10.125 0 1 0 22.125 12 10.137 10.137 0 0 0 12 1.875M7.46 18.428a5.625 5.625 0 0 1 9.08 0 7.85 7.85 0 0 1-9.08 0M9.375 11.25a2.625 2.625 0 1 1 5.25 0 2.625 2.625 0 0 1-5.25 0M18.188 16.87a7.8 7.8 0 0 0-2.72-2.196 4.875 4.875 0 1 0-6.937 0 7.8 7.8 0 0 0-2.719 2.195 7.875 7.875 0 1 1 12.376 1e-3z" />
    </symbol>
    <symbol id="cart" viewBox="0 0 24 24">
      <path fill="currentColor"
        d="M9.375 20.25a1.875 1.875 0 1 1-3.75 0 1.875 1.875 0 0 1 3.75 0M17.25 18.375a1.875 1.875 0 1 0 0 3.75 1.875 1.875 0 0 0 0-3.75M22.075 7.081l-2.558 8.316a2.61 2.61 0 0 1-2.51 1.853H7.775a2.64 2.64 0 0 1-2.525-1.904L2.045 4.125h-0.92a1.125 1.125 0 0 1 0-2.25h1.202a1.88 1.88 0 0 1 1.803 1.36l0.683 2.39H21a1.125 1.125 0 0 1 1.075 1.456M19.477 7.875H5.455l1.959 6.853A0.375 0.375 0 0 0 7.774 15h9.233a0.375 0.375 0 0 0 0.36-0.264z" />
    </symbol>
    <symbol id="fb" viewBox="0 0 7 13">
      <path
        d="M1.87 12.17V6.62H0V4.46h1.87V2.86C1.87 1.01 3 0 4.65 0c.79 0 1.47.06 1.67.09v1.93h-1.15c-.9 0-1.07.43-1.07 1.05v1.39h2.14l-.28 2.16H4.1v5.55z" />
    </symbol>
    <symbol id="twitter" viewBox="0 0 12 10">
      <path fill="currentColor"
        d="M11.17 1.05c-.42.18-.86.3-1.32.37.46-.28.84-.72 1-1.26-.44.26-.93.44-1.46.56C8.96.28 8.36 0 7.7 0c-1.25 0-2.28 1.02-2.28 2.28 0 .19.02.35.07.51-1.89-.09-3.59-1-4.73-2.4C.58.74.47 1.12.47 1.54c0 .79.4 1.49 1.02 1.91-.37-.01-.72-.1-1.05-.27v.02c0 1.12.79 2.05 1.84 2.26-.19.05-.4.07-.61.07-.14 0-.3-.02-.44-.05.3.91 1.14 1.58 2.14 1.58-1.26.98-2.24 1.35-3.31 1.35-.19 0-.37 0-.54-.02 1.03.65 2.21 1.02 3.52 1.02 4.21 0 6.52-3.49 6.52-6.52v-.3c.44-.31.84-.7 1.14-1.17z" />
    </symbol>

    <symbol id="Star2" viewBox="5 0 9 17">
      <path d="M3.36 16.72l5.43-3.02V0L6.17 5.64 0 6.39l4.55 4.23z" />
    </symbol>
    <symbol id="Star1" viewBox="0 0 18 17">
      <path d="M8.79 0l2.62 5.64 6.17.75-4.55 4.23 1.2 6.1-5.44-3.02-5.43 3.02 1.2-6.1L0 6.39l6.17-.75z" />
    </symbol>
    <symbol id="versace" viewBox="0 0 167 34">
      <path fill="currentColor" clip-rule="evenodd"
        d="M150.179 0.656h16.303v2.597a4.7 4.7 0 0 0-1.469-0.242h-9.371v12.138h9.116c0.655 0 1.238-0.072 1.723-0.194v2.586c-0.413-0.097-0.982-0.146-1.687-0.146h-9.152v12.552h9.091c0.499 0 1.093-0.073 1.748-0.231v2.792h-16.278c0.13-0.491 0.196-0.997 0.195-1.505V2.197c0-0.63-0.073-1.153-0.219-1.541M146.405 8.922l-4.71-0.035c-0.231-2.647-1.748-5.21-5.086-5.681-7.15-0.644-9.165 7.209-8.983 12.951 0.183 5.535 1.068 14.045 8.449 14.045 3.096 0 6.069-3.181 5.972-5.864l4.358-0.035c-0.316 5.535-6.664 8.739-9.687 8.849-10.329 0.352-14.652-6.531-14.87-16.353C121.654 7.903 125.296 0 135.504 0c8.74 0.122 10.427 5.293 10.901 8.922M72.941 28.89l3.12-2.61c1.626 2.683 2.961 3.909 6.19 3.909 3.278 0 6.034-1.99 6.034-5.51 0-1.737-0.705-3.157-2.1-4.225-0.632-0.498-2.234-1.36-4.76-2.561-3.774-1.808-7.452-4.164-7.452-8.897 0-5.973 5.074-8.607 10.427-8.802 3.168-0.121 7.1 1.628 8.69 3.593l-3.168 2.44a6.62 6.62 0 0 0-5.826-3.495c-4.043 0-7.247 4.685-3.897 7.914 0.85 0.825 2.586 1.845 5.232 3.059 4.224 1.979 7.83 4.345 7.83 9.577a9.57 9.57 0 0 1-1.409 5.038c-1.88 3.107-5.025 4.661-9.42 4.661-5.05 0-6.044-1.153-9.492-4.09M28.489 0.656h16.29v2.597a4.7 4.7 0 0 0-1.469-0.242h-9.37v12.138h9.115c0.656 0 1.24-0.072 1.724-0.194v2.586c-0.413-0.097-0.983-0.146-1.674-0.146H33.94v12.552h9.091a7.6 7.6 0 0 0 1.748-0.231v2.792H28.514a6.5 6.5 0 0 0 0.182-1.505V2.197c0-0.63-0.074-1.153-0.207-1.541M0 0.656h5.924v0.292c0 0.266 0.084 0.618 0.23 1.067l8.35 25.14 8.571-25.25c0.134-0.424 0.207-0.836 0.207-1.25h2.877c-0.292 0.51-0.51 0.96-0.644 1.36L15.731 31.21c-0.097 0.28-0.182 0.717-0.254 1.3H10.62a8 8 0 0 0-0.328-1.3L0.704 2.246A49 49 0 0 0 0 0.656zM62.915 17.262c3.884-0.765 6.858-3.739 6.858-7.987 0-5.573-4.662-8.62-9.881-8.62H50.35c0.133 0.486 0.206 0.996 0.206 1.53v28.792c0 0.62-0.073 1.142-0.206 1.53h5.68a5.6 5.6 0 0 1-0.206-1.53v-13.23l1.82 0.195 9.518 14.565h5.717zM61.931 14.835c-1.031 0.727-2.27 1.09-3.69 1.09h-2.428V2.976h2.173q2.786 0 4.334 1.383c1.408 1.276 2.124 3 2.124 5.16q0 3.496-2.513 5.317M120.901 31.186 110.293 1.712a3.9 3.9 0 0 1-0.207-1.056h-4.589c0 0.376-0.061 0.776-0.207 1.177L95.01 31.185a5.8 5.8 0 0 1-0.644 1.323h2.962c-0.012-0.486 0.049-0.935 0.182-1.323l3.046-8.656h11.714l3.011 8.657c0.158 0.472 0.23 0.91 0.23 1.322h6.143c-0.353-0.498-0.607-0.947-0.753-1.323M101.358 20.187 106.31 5.803l5.087 14.383z"
        fill-rule="evenodd" />
    </symbol>
    <symbol id="calvine-klein" viewBox="0 0 207 34">
      <path fill="currentColor" clip-rule="evenodd"
        d="M16.648 30.452c-7.239 0-13.417-6.565-13.417-13.727 0-7.134 6.05-13.83 13.365-13.83 4.81 0 8.272 2.326 11.09 5.972h3.542c-1.06-1.914-2.197-3.671-3.93-5.042C24.327 1.421 20.475 0 16.649 0 7.471 0 0 7.575 0 16.7c0 9.15 7.575 16.648 16.7 16.648 3.723 0 7.368-1.37 10.29-3.67 1.835-1.474 3.127-3.387 4.369-5.352h-3.542c-2.793 3.645-6.36 6.126-11.169 6.126M53.358 13.002c-2.223-2.869-5.249-4.678-8.997-4.678-6.721 0-12.253 5.456-12.253 12.177s5.559 12.227 12.253 12.227c3.904 0 6.618-1.63 8.996-4.628v4.084h2.922V8.892h-2.922zM44.206 30.04c-5.146 0-9.204-4.472-9.204-9.512 0-5.016 4.033-9.514 9.204-9.514 5.144 0 9.15 4.499 9.15 9.514 0 5.04-4.033 9.512-9.15 9.512M59.819 32.185h3.13V0.671h-3.13zM74.762 28.488 66.852 8.893H63.75l9.487 23.292h3.154l9.462-23.292h-3.05zM87.144 32.185h3.128V8.892h-3.128zM87.144 5.895h3.128V0.67h-3.128zM103.742 8.324c-2.948 0-5.042 1.552-6.98 3.62v-3.05h-2.896v23.291h3.076V17.991c-0.026-3.748 3.076-6.979 6.851-6.979 4.729 0 7.108 4.11 7.108 8.35v12.823h2.895V19.363c1e-3-6.05-3.54-11.04-10.054-11.04M142.829 0.67 128.611 18.74V0.671h-3.076v31.513h3.076v-8.66l4.033-5.015 10.263 13.675h3.905l-12.204-16.157 12.204-15.357zM147.948 32.183H151V0.671h-3.052zM176.256 14.759c-2.12-3.956-6.36-6.437-10.833-6.437-6.668 0-12.305 5.559-12.305 12.228 0 6.72 5.688 12.176 12.359 12.176 3.178 0 6.308-1.267 8.607-3.464 1.397-1.319 2.224-2.973 2.972-4.705h-3.281c-1.656 3.232-4.577 5.48-8.353 5.48-2.299 0-4.548-0.931-6.254-2.508-1.76-1.602-2.534-3.568-2.871-5.894h21.484c2e-3-2.43-0.336-4.756-1.525-6.876M156.402 18.947c0.932-4.368 4.369-7.936 9.075-7.936 3.955 0 8.195 2.43 9.126 7.936zM180.057 32.183h3.075V8.892h-3.075zM180.057 5.996h3.075V0.671h-3.075zM196.654 8.322c-3 0-5.094 1.552-7.059 3.62v-3.05h-2.947v23.291h3.103V17.991c-0.026-3.774 3.154-6.979 6.953-6.979 4.707 0 7.189 4.11 7.189 8.35v12.823h2.895V19.363c0-6.05-3.595-11.04-10.134-11.04"
        fill-rule="evenodd" />
    </symbol>
    <symbol id="zara" viewBox="0 0 91 38">
      <path fill="currentColor"
        d="M86.332 36.868 72.85 0.032 72.841 8e-3h-0.266l-2.776 7.57-5.055 13.78-0.012-0.01c-1.751-1.534-4.223-2.493-7.335-2.85l-0.95-0.098 0.942-0.12c5.133-0.915 8.583-4.132 8.583-8.008 0-5.315-5.037-9.024-12.253-9.024H38.705v0.269h4.363V28.98L32.473 0.032 32.463 8e-3h-0.266l-2.776 7.57-10.709 29.195-0.066 8e-3a12 12 0 0 1-1.348 0.087H6.478L27.045 1.517l0.153-0.266H2.043v10.936H2.31C2.357 6.86 5.483 1.517 12.39 1.517h8.333L0 37.133h27.917V26.656H27.65c-0.036 4.643-2.688 9.052-8.455 10.048l-0.184 0.03 4.393-11.98h12.304l4.433 12.114h-4.373v0.265h17.165v-0.265h-4.392V18.596h5.068c5.157 0 8.115 2.286 8.115 6.27v3.242c0 0.357 0.025 0.88 0.052 1.316v0.016l-2.724 7.427h-3.559v0.264h7.367v-0.264h-3.52l2.48-6.763 8e-3 0.105 0.068 0.61 0.066 0.402c0.414 2.494 1.375 4.327 2.856 5.448l0.213 0.154c1.124 0.776 2.522 1.17 4.157 1.17 2.165 0 3.608-0.536 4.8-1.797l-0.156-0.146c-1.098 1.006-2.02 1.413-3.174 1.413-1.968 0-2.997-2.368-2.997-4.703v-4.54a10.1 10.1 0 0 0-0.526-3.317l-0.05-0.14v-6e-3h9L80.52 36.87h-4.374v0.265H91V36.87zM23.502 24.49l6.06-16.525 6.048 16.525zM48.544 18.33V1.517h3.868c5.168 0 7.896 3.048 7.896 8.812 0 6.13-1.566 8-6.699 8zM66.981 24.49l-0.026-0.066a8.2 8.2 0 0 0-1.716-2.598l-0.253-0.252-0.027-0.025 4.978-13.584 6.048 16.525z" />
      <defs>
        <clipPath id="a">
          <path fill="#fff" d="M0 0h91v38H0z" />
        </clipPath>
      </defs>
    </symbol>
    <symbol id="prada" viewBox="0 0 194 32">
      <path stroke-width="1.024" stroke="currentColor" fill="currentColor" clip-rule="evenodd"
        d="M0 0.902 2.932 4.208v24.203L0.76 31.577l13.31 0.02-2.4-2.913-0.249-8.716 12.834 0.07c3.89-1.296 7.888-4.056 8.08-9.638-0.061-5.41-3.364-8.88-7.198-9.57zM10.945 2.45v15.548l9.846 0.07c2.24-1.806 3.939-3.19 3.87-7.527-0.031-3.537-0.778-6.62-4.074-8.09zM38.494 0.725l2.932 3.308v24.202l-2.173 3.168 13.308 0.02-2.399-2.915-0.249-8.716h0.054l13.75 11.729 11.41-0.094-10.414-9.008h-8.694l-3.065-2.61 9.792 0.053c3.89-1.295 7.888-4.056 8.081-9.638-0.06-5.409-3.363-8.879-7.198-9.568zM49.438 2.273v15.548l9.846 0.071c2.241-1.806 3.939-3.19 3.87-7.528-0.031-3.536-0.778-6.621-4.074-8.09zM86.113 0.691H97.59l14.939 27.72c0.646 2.14 2.58 1.876 3.87 2.814h-14.463l2.173-0.68-0.136-2.063-3.735-5.98-12.698 0.07-2.716 5.77c-0.09 0.656-0.792 1.154-0.272 1.97l1.02 0.984-6.248-0.141 2.717-0.844 10.252-21.6V7.235l-4.331-5.779zM88.342 20.598l5.274-9.986 5.491 9.93zM163.715 0.75h11.475l14.939 27.72c0.647 2.14 2.58 1.877 3.871 2.815h-14.464l2.173-0.681-0.136-2.064-3.734-5.98-12.698 0.072-2.716 5.768c-0.092 0.657-0.793 1.156-0.273 1.97l1.019 0.985-6.246-0.14 2.717-0.844 10.252-21.6V7.293l-4.332-5.777zM165.944 20.658l5.274-9.985 5.491 9.927zM120.367 0.402 140.81 0.515c6.584 1.542 10.772 5.564 12.071 12.58l-0.055 5.472c-1.2 6.252-5.133 10.565-12.07 12.749l-20.498 0.057-3e-3-0.662c3.117-0.236 3.366-0.591 3.374-2.441V3.335c-0.035-1.368-0.309-2.22-3.317-2.313zM131.988 2.536l-0.02 26.977c2.696 0.01 5.035 0.262 6.357-0.412 2.994-1.368 4.385-3.468 4.512-5.441l-0.072-15.93c1e-3-2.548-2.765-4.347-4.361-4.816-1.142-0.423-3.421-0.44-6.416-0.378z"
        fill-rule="evenodd" stroke-miterlimit="2.613" />
      <defs>
        <clipPath id="a1">
          <path fill="#fff" d="M0 0h194v32H0z" />
        </clipPath>
      </defs>
    </symbol>

    <symbol id="gucci" viewBox="0 0 156 36">
      <path
        d="M141.31 11.29l-.29.1c-1.13-2.35-2.75-4.21-4.86-5.6-2.07-1.38-4.68-2.08-7.82-2.08-1.75 0-3.42.35-5 1.06-1.59.68-2.98 1.65-4.18 2.91-1.17 1.24-2.11 2.73-2.82 4.49s-1.07 3.7-1.07 5.83c0 2.13.36 4.07 1.07 5.83s1.65 3.27 2.82 4.53c1.2 1.23 2.59 2.19 4.18 2.87 1.59.68 3.25 1.02 5 1.02 3.11 0 5.64-.46 7.58-1.39 1.97-.95 3.64-2.4 5-4.35l.29.1-.1 2.96c-.74.74-1.6 1.4-2.57 1.99-.97.55-2.03 1.03-3.16 1.43-1.1.37-2.25.65-3.45.84-1.2.21-2.4.32-3.59.32-2.49 0-4.88-.39-7.14-1.16s-4.26-1.85-5.98-3.24c-1.71-1.41-3.07-3.11-4.08-5.08-1-2-1.5-4.22-1.5-6.66s.5-4.64 1.5-6.61c1-2 2.36-3.72 4.08-5.14 1.72-1.41 3.71-2.5 5.98-3.23 2.27-.77 4.65-1.16 7.14-1.16 1.2 0 2.4.1 3.59.28 1.2.18 2.35.48 3.45.88 1.13.37 2.19.85 3.16 1.43.97.56 1.83 1.21 2.57 1.95zm-107.06 8.84c-.35.15-.7.35-1.02.6-.32.25-.48.59-.48 1.02v5.69c-1.55 2.13-3.55 3.78-5.98 4.95-2.43 1.17-5.12 1.76-8.06 1.76-2.49 0-4.88-.39-7.15-1.16-2.26-.77-4.25-1.85-5.97-3.24-1.72-1.41-3.08-3.11-4.08-5.08C.5 22.66 0 20.44 0 18s.5-4.64 1.5-6.61c1-2 2.37-3.72 4.09-5.14 1.71-1.41 3.7-2.5 5.97-3.23 2.27-.77 4.65-1.16 7.14-1.16 1.2 0 2.4.1 3.6.28 1.2.18 2.35.48 3.45.88 1.13.37 2.18.85 3.16 1.43.97.56 1.83 1.21 2.57 1.95l.19 4.9-.29.1c-1.13-2.35-2.75-4.21-4.86-5.6-2.07-1.38-4.68-2.08-7.82-2.08-1.75 0-3.42.35-5 1.06-1.59.68-2.98 1.65-4.18 2.92-1.17 1.23-2.11 2.73-2.82 4.48-.71 1.76-1.07 3.7-1.07 5.83 0 2.1.34 4.02 1.02 5.78.71 1.76 1.65 3.27 2.82 4.53 1.2 1.24 2.59 2.21 4.18 2.92 1.59.68 3.27 1.01 5.05 1.01 3.37 0 6.25-.62 8.65-1.85v-8.65c0-.43-.18-.77-.54-1.02-.32-.25-.65-.45-.97-.6l.04-.23c.16.03.46.06.88.09s.86.06 1.31.09h4.18c.39-.03.76-.06 1.12-.09.35-.03.63-.06.82-.09zm35.19-17.3c-.32.15-.65.35-.97.6-.32.25-.5.71-.53 1.39-.03.74-.06 1.68-.1 2.82 0 1.11-.01 2.37-.04 3.79 0 1.42-.01 2.96-.04 4.63v5.18c-.03 2-.29 3.71-.78 5.13-.49 1.42-1.13 2.61-1.94 3.56-.78.96-1.65 1.71-2.63 2.27-.94.55-1.87.97-2.81 1.25-.91.31-1.77.49-2.58.55-.81.09-1.44.14-1.89.14-1.85 0-3.63-.23-5.35-.69-1.71-.43-3.22-1.14-4.52-2.13-1.3-1-2.33-2.27-3.11-3.84-.78-1.57-1.16-3.48-1.16-5.74v-5.23v-4.81c0-1.48-.01-2.8-.04-3.98 0-1.2-.01-2.17-.04-2.91-.03-.68-.21-1.14-.54-1.39-.32-.25-.65-.45-.97-.6l.04-.23c.16.03.42.06.78.09.39.03.78.06 1.16.09.43 0 .83.01 1.22.04l1.75 0c.39-.03.79-.04 1.21-.04.42-.03.81-.06 1.17-.09.39-.03.66-.06.82-.09l.05.23c-.36.15-.7.35-1.02.6-.29.25-.45.71-.49 1.39-.03.7-.06 1.71-.1 2.91v14.01c0 3.36.83 5.85 2.48 7.45s4.1 2.41 7.34 2.41c.94 0 2.01-.11 3.2-.33 1.2-.24 2.32-.74 3.36-1.48 1.06-.74 1.96-1.79 2.67-3.14.74-1.36 1.12-3.16 1.12-5.42 0-2.43-.01-4.52-.04-6.24 0-1.76-.02-3.25-.05-4.49 0-1.26-.01-2.34-.04-3.24-.03-.89-.06-1.71-.1-2.45-.03-.68-.21-1.14-.53-1.39-.33-.25-.65-.45-.97-.6l.04-.23c.36.06.76.12 1.22.18.45.03.87.04 1.26.04.36 0 .76-.01 1.22-.04.48-.06.91-.12 1.26-.18zm35.26 8.46l-.29.1c-1.14-2.35-2.75-4.21-4.86-5.6-2.07-1.38-4.68-2.08-7.82-2.08-1.75 0-3.42.35-5 1.06-1.59.68-2.98 1.65-4.18 2.91-1.17 1.24-2.11 2.73-2.82 4.49-.71 1.76-1.07 3.7-1.07 5.83s.36 4.07 1.07 5.83c.71 1.76 1.65 3.27 2.82 4.53 1.2 1.23 2.59 2.19 4.18 2.87 1.59.68 3.25 1.02 5 1.02 3.11 0 5.64-.46 7.58-1.39 1.97-.95 3.64-2.4 5-4.35l.29.1-.1 2.96c-.74.74-1.6 1.4-2.57 1.99-.97.55-2.03 1.03-3.16 1.43-1.1.37-2.25.65-3.45.84-1.2.21-2.4.32-3.59.32-2.49 0-4.88-.39-7.14-1.16s-4.26-1.85-5.98-3.24c-1.71-1.41-3.07-3.11-4.08-5.08-1-2-1.5-4.22-1.5-6.66s.5-4.64 1.5-6.61c1-2 2.37-3.72 4.09-5.14 1.71-1.41 3.7-2.5 5.97-3.23 2.27-.77 4.65-1.16 7.14-1.16 1.2 0 2.4.1 3.6.28 1.2.18 2.35.48 3.45.88 1.13.37 2.19.85 3.16 1.43.97.56 1.83 1.21 2.57 1.95zm51.26 22.06c-.16-.03-.44-.06-.83-.09-.35 0-.74-.01-1.16-.04-.42 0-.83-.01-1.22-.04h-2.91c-.39.03-.78.06-1.17.09-.36.03-.63.06-.83.09l-.04-.18c.32-.16.65-.36.97-.6.32-.25.5-.71.53-1.39.03-.74.05-1.51.05-2.31.03-.8.04-1.71.04-2.73v-3.47v-4.67v-4.67v-3.52c0-1.02-.02-1.91-.04-2.68 0-.8-.02-1.57-.05-2.31-.03-.68-.21-1.14-.53-1.39-.32-.28-.65-.49-.97-.65l.05-.18c.19.06.47.11.83.14.39 0 .77.01 1.16.04.42.03.83.04 1.21.04h1.7c.39-.03.79-.04 1.22-.04.42-.03.81-.06 1.16-.09.39-.03.66-.06.83-.09z" />
    </symbol>

  </defs>
</svg>