<svg xmlns="http://www.w3.org/2000/svg" style="position:absolute;width:0;height:0;overflow:hidden" aria-hidden="true"><defs><symbol id="Visa" viewBox="0 0 28 9"><path fill="#1434cb" d="m13.81.16-1.86 8.71H9.7L11.56.16zm9.48 5.62 1.19-3.27.68 3.27zm2.52 3.09h2.08L26.07.16h-1.92c-.43 0-.8.25-.96.64l-3.38 8.07h2.37l.47-1.3h2.89zm-5.88-2.84c0-2.3-3.18-2.43-3.16-3.45.01-.32.3-.65.96-.73a8.3 8.3 0 0 1 2.22.39l.4-1.85A6.6 6.6 0 0 0 18.23 0c-2.23 0-3.8 1.18-3.81 2.88-.01 1.25 1.12 1.95 1.97 2.37.88.43 1.17.7 1.17 1.08 0 .59-.7.84-1.35.85a7.3 7.3 0 0 1-2.31-.55l-.41 1.91c.53.24 1.5.45 2.5.46 2.37 0 3.92-1.17 3.92-2.98zM10.59.16 6.94 8.87H4.56l-1.8-6.95c-.11-.43-.21-.59-.54-.77A4 4 0 0 0 0 .41L.05.16h3.84c.49 0 .93.32 1.04.89l.95 5.04L8.22.16z"/></symbol><symbol id="cross" viewBox="0 0 20 20"><path fill="currentColor" d="M16.288 14.962a.939.939 0 1 1-1.328 1.328L10 11.328l-4.962 4.96A.94.94 0 0 1 3.71 14.96L8.672 10l-4.96-4.962A.94.94 0 1 1 5.04 3.71L10 8.672l4.962-4.963a.94.94 0 1 1 1.328 1.329L11.328 10z"/></symbol><symbol id="Mastercard" viewBox="0 0 22 14" fill="#f79e1b"><path fill="#ff5f00" d="M13.82 1.44H7.94v10.57h5.88z"/><path fill="#eb001b" d="M8.31 6.72a6.5 6.5 0 0 1 1.35-3.8A6.2 6.2 0 0 1 12.23.74a7.3 7.3 0 0 0-4.79-.7 6.6 6.6 0 0 0-3.66 2.64 6.7 6.7 0 0 0 0 7.91 6.6 6.6 0 0 0 3.66 2.64 7.3 7.3 0 0 0 4.79-.7 6.2 6.2 0 0 1-2.57-2.18 6.5 6.5 0 0 1-1.35-3.8z"/><path d="M21.76 6.72a6.7 6.7 0 0 1-1.03 3.57 6.5 6.5 0 0 1-2.76 2.48 6.8 6.8 0 0 1-3.65.64 7.3 7.3 0 0 1-3.44-1.4 6.3 6.3 0 0 0 1.89-2.35c.45-.91.68-1.92.68-2.94s-.23-2.02-.68-2.94a6.3 6.3 0 0 0-1.89-2.35 7.3 7.3 0 0 1 3.44-1.4 6.8 6.8 0 0 1 3.65.64 6.5 6.5 0 0 1 2.76 2.48 6.7 6.7 0 0 1 1.03 3.57zm-.64 4.17v-.22h.08v-.04h-.22v.04h.08v.22zm.43 0v-.26h-.07l-.08.18-.08-.18h-.07v.26h.05v-.2l.07.17h.05l.08-.17v.2z"/></symbol><symbol id="Paypal" viewBox="0 0 30 8" clip-rule="evenodd" fill-rule="evenodd"><path fill="#253b80" d="M3.55 0h-2.3c-.16 0-.3.11-.32.27L0 6.18c-.02.11.07.22.19.22h1.1c.16 0 .3-.11.32-.27l.25-1.59c.02-.16.16-.27.32-.27h.73c1.52 0 2.39-.73 2.62-2.19.1-.64 0-1.14-.3-1.49C4.9.2 4.32 0 3.55 0zm.27 2.16c-.13.82-.76.83-1.37.83H2.1l.25-1.55c.01-.09.09-.16.19-.16h.16c.41 0 .8 0 1.01.24.12.14.16.35.11.64zm6.62-.03h-1.1c-.1 0-.18.07-.19.16l-.06.31-.08-.11a2.1 2.1 0 0 0-1.3-.47c-1.22 0-2.26.92-2.46 2.22-.1.64.05 1.26.41 1.7.34.39.82.56 1.39.56.98 0 1.53-.63 1.53-.63l-.05.31c-.02.11.07.22.19.22h.99c.16 0 .3-.11.32-.27l.6-3.77a.187.187 0 0 0-.19-.22zM8.9 4.28c-.11.63-.61 1.05-1.25 1.05-.32 0-.58-.1-.74-.3-.16-.19-.22-.46-.17-.77.1-.63.61-1.06 1.23-1.06.32 0 .57.1.74.3.17.2.24.48.19.78zm6.3-2.15h1.1c.16 0 .25.17.16.3l-3.69 5.32c-.06.09-.16.14-.26.14h-1.1c-.16 0-.25-.18-.16-.3l1.15-1.62-1.22-3.59c-.04-.12.05-.25.18-.25h1.09c.14 0 .27.09.31.23l.65 2.16 1.53-2.25c.06-.09.16-.14.26-.14z"/><path fill="#179bd7" d="m27.23 6.18.94-6.02c.02-.11.1-.16.2-.16h1.06c.12 0 .2.1.19.22l-.94 5.9c-.03.16-.16.28-.32.28h-.95c-.12 0-.21-.1-.19-.22zM19.99 0h-2.3c-.16 0-.3.11-.32.27l-.94 5.91c-.02.11.07.22.19.22h1.18c.11 0 .2-.08.22-.19l.26-1.67c.03-.16.16-.27.32-.27h.73c1.52 0 2.39-.73 2.62-2.19.1-.64 0-1.14-.3-1.49C21.34.2 20.76 0 19.99 0zm.26 2.16c-.12.82-.75.83-1.37.83h-.34l.24-1.54c.01-.09.1-.16.19-.16h.16c.41 0 .8 0 1.01.24.12.14.16.35.11.64zm6.62-.03h-1.1c-.1 0-.18.07-.19.16l-.05.31-.08-.11a2.1 2.1 0 0 0-1.3-.47c-1.22 0-2.26.92-2.46 2.22-.1.64.04 1.26.41 1.7.34.39.81.56 1.39.56.98 0 1.53-.63 1.53-.63l-.05.31c-.02.11.07.22.19.22h.99c.16 0 .3-.11.32-.27l.6-3.77a.187.187 0 0 0-.19-.22zm-1.54 2.15c-.1.63-.6 1.05-1.24 1.05-.32 0-.58-.1-.74-.3-.16-.19-.23-.46-.17-.77.1-.63.6-1.06 1.23-1.06.32 0 .57.1.74.3.17.2.24.48.19.78z"/></symbol><symbol id="Pay" viewBox="0 0 23 10" fill="currentColor"><path d="M4.28 1.239c.266-.334.447-.782.4-1.239-.391.02-.867.257-1.143.591-.248.286-.467.752-.41 1.19.438.039.876-.218 1.152-.542zm.394.628c-.636-.038-1.177.361-1.48.361-.305 0-.77-.342-1.273-.332-.655.01-1.263.38-1.595.968C-.358 4.043.146 5.79.81 6.75c.323.474.712.997 1.225.978.484-.019.674-.313 1.263-.313.588 0 .759.313 1.272.304.531-.01.864-.475 1.186-.95.37-.541.522-1.064.532-1.093-.01-.01-1.025-.399-1.035-1.567-.01-.979.798-1.444.836-1.473-.456-.674-1.168-.75-1.415-.769zM10.213.543c1.383 0 2.346.953 2.346 2.341 0 1.393-.983 2.35-2.38 2.35H8.648V7.67H7.542V.543zM8.648 4.306h1.269c.963 0 1.51-.518 1.51-1.417s-.547-1.412-1.505-1.412H8.648zm4.2 1.887c0-.909.696-1.467 1.93-1.536l1.423-.084v-.4c0-.578-.39-.924-1.042-.924-.618 0-1.003.297-1.097.76h-1.007c.06-.938.86-1.629 2.143-1.629 1.26 0 2.064.667 2.064 1.709v3.58H16.24v-.854h-.024c-.302.578-.958.943-1.64.943-1.017 0-1.728-.632-1.728-1.565zm3.353-.47v-.41l-1.28.08c-.636.044-.997.326-.997.77 0 .454.376.75.948.75.746 0 1.329-.513 1.329-1.19zm2.026 3.857v-.864c.08.02.257.02.346.02.494 0 .76-.208.923-.74 0-.01.094-.317.094-.322l-1.876-5.2h1.155l1.314 4.227h.02l1.313-4.227h1.126l-1.945 5.467c-.445 1.26-.958 1.664-2.035 1.664-.089 0-.356-.01-.434-.025z"/></symbol><symbol id="GPay" viewBox="0 0 25 10" fill="#3c4043"><path d="M11.43 7.5h-.9V.51h2.38c.6 0 1.12.2 1.54.6.43.4.65.9.65 1.48 0 .59-.22 1.08-.65 1.48-.42.4-.93.6-1.54.6h-1.48zm0-6.13V3.8h1.5c.36 0 .66-.12.89-.36.24-.24.36-.53.36-.86 0-.32-.12-.61-.36-.85-.23-.25-.53-.37-.89-.37h-1.5zm6.02 1.19c.66 0 1.19.18 1.57.53s.58.84.58 1.46V7.5h-.86v-.66h-.04c-.37.55-.86.82-1.48.82-.53 0-.97-.15-1.33-.47-.35-.31-.53-.7-.53-1.17 0-.5.19-.89.56-1.18.38-.29.88-.44 1.5-.44.53 0 .97.1 1.32.29v-.2c0-.31-.12-.58-.37-.8s-.54-.33-.87-.33c-.5 0-.9.21-1.19.64l-.73-.56c.44-.63 1.08-.95 1.93-.95zm-1.17 3.47c0 .24.1.43.3.59.2.15.43.23.7.23.38 0 .71-.14 1.01-.42.29-.28.44-.61.44-.99-.28-.22-.67-.33-1.17-.33-.36 0-.67.09-.91.26-.25.18-.37.4-.37.66zm8.2-3.32-3 6.89h-.92l1.11-2.41-1.97-4.48h.98l1.42 3.44h.02l1.38-3.44z"/><path fill="#4285f4" d="M7.85 4.1c0-.29-.02-.57-.07-.84H4.01V4.8h2.17c-.09.52-.37.95-.81 1.25v1h1.29c.76-.7 1.19-1.73 1.19-2.95z"/><path fill="#34a853" d="M5.37 6.05c-.36.24-.82.38-1.36.38-1.05 0-1.93-.7-2.25-1.65H.43v1.03a4 4 0 0 0 3.58 2.21c1.08 0 1.99-.36 2.66-.97z"/><path fill="#fabb05" d="M1.63 4.01c0-.27.05-.53.13-.77V2.21H.43A4 4 0 0 0 0 4.01c0 .64.15 1.26.43 1.8l1.33-1.03c-.08-.24-.13-.5-.13-.77z"/><path fill="#e94235" d="M4.01 1.59c.59 0 1.12.2 1.54.6l1.14-1.14A4 4 0 0 0 4.01 0C2.44 0 1.09.9.43 2.21l1.33 1.03c.32-.95 1.2-1.65 2.25-1.65z"/></symbol><symbol id="Frame6" viewBox="0 0 20 20"><path fill="currentColor" fill-opacity=".4" d="M17.5 3.44h-15a.938.938 0 0 0-.94.94V15c0 .41.17.81.46 1.1.29.3.69.46 1.1.46h13.75c.41 0 .81-.16 1.1-.46.3-.29.46-.69.46-1.1V4.38c0-.25-.1-.49-.27-.66s-.42-.28-.67-.28zM10 9.98 4.91 5.31h10.18zM7.25 10l-3.81 3.49V6.51zm1.39 1.27.73.67c.17.16.4.25.63.25s.46-.09.63-.25l.73-.67 3.73 3.42H4.91zM12.75 10l3.82-3.49v6.99z"/></symbol><symbol id="arrow-slider" viewBox="0 0 24 24"><path fill="currentColor" d="M9.7 4.45 2.95 11.2c-.1.1-.19.23-.24.37a1.07 1.07 0 0 0 0 .86c.05.14.14.26.24.37l6.75 6.75c.21.21.5.33.8.33s.58-.12.8-.33c.21-.21.33-.5.33-.8s-.12-.58-.33-.8l-4.83-4.83h13.78c.3 0 .58-.12.8-.33.21-.21.33-.5.33-.8s-.12-.58-.33-.8c-.21-.21-.5-.33-.8-.33H6.47l4.83-4.83c.21-.21.33-.5.33-.8s-.12-.58-.33-.8a1.136 1.136 0 0 0-1.6 0z"/></symbol><symbol id="github" viewBox="0 0 13 13"><path fill="currentColor" fill-rule="evenodd" clip-rule="evenodd" d="M6.48 0C2.89 0 0 2.89 0 6.48c0 2.86 1.86 5.29 4.43 6.16.32.05.43-.14.43-.32v-1.11c-1.81.41-2.19-.86-2.19-.86-.3-.76-.73-.95-.73-.95-.6-.4.05-.4.05-.4.65.05 1 .68 1 .68.57 1 1.51.7 1.89.54.05-.43.22-.7.4-.86-1.43-.16-2.94-.73-2.94-3.21 0-.7.24-1.3.67-1.73-.06-.16-.3-.81.06-1.73 0 0 .54-.16 1.78.68.51-.14 1.08-.22 1.62-.22s1.11.08 1.62.22c1.24-.84 1.78-.68 1.78-.68.35.89.14 1.54.06 1.73.4.46.67 1.03.67 1.73 0 2.48-1.51 3.02-2.97 3.19.24.19.43.59.43 1.19v1.78c0 .16.11.38.46.32a6.462 6.462 0 0 0 4.43-6.13C12.96 2.89 10.07 0 6.48 0z"/></symbol><symbol id="star" viewBox="0 0 104 104"><path fill="currentColor" d="M52 0c1.765 27.955 24.045 50.235 52 52-27.955 1.765-50.235 24.045-52 52-1.765-27.955-24.045-50.235-52-52 27.955-1.765 50.235-24.045 52-52"/></symbol><symbol id="instagram" viewBox="0 0 14 14" fill="currentColor"><path d="M6.774 1.22c1.809 0 2.023.007 2.738.04.43.005.855.084 1.258.233a2.24 2.24 0 0 1 1.286 1.286c.149.403.228.828.233 1.258.032.715.04.929.04 2.738s-.008 2.022-.04 2.737c-.005.43-.084.855-.233 1.258a2.24 2.24 0 0 1-1.286 1.286 3.756 3.756 0 0 1-1.258.233c-.715.032-.929.04-2.738.04s-2.023-.007-2.737-.04a3.8 3.8 0 0 1-1.258-.233 2.24 2.24 0 0 1-1.286-1.286 3.8 3.8 0 0 1-.233-1.258c-.033-.715-.04-.929-.04-2.737 0-1.81.007-2.023.04-2.738.005-.43.084-.855.233-1.258a2.24 2.24 0 0 1 1.286-1.286 3.752 3.752 0 0 1 1.258-.233c.714-.032.928-.04 2.737-.04m0-1.22c-1.839 0-2.07.008-2.793.04a5 5 0 0 0-1.645.315c-.452.17-.86.437-1.199.782a3.3 3.3 0 0 0-.782 1.2A5 5 0 0 0 .04 3.982C.008 4.704 0 4.935 0 6.774s.008 2.07.04 2.793c.012.562.118 1.119.315 1.645.17.452.437.862.782 1.2a3.31 3.31 0 0 0 1.2.781 5 5 0 0 0 1.645.315c.723.033.953.041 2.793.041s2.07-.008 2.793-.04a5 5 0 0 0 1.645-.316 3.47 3.47 0 0 0 1.98-1.981 5 5 0 0 0 .315-1.646c.033-.721.04-.953.04-2.792s-.007-2.07-.04-2.793a5 5 0 0 0-.315-1.645 3.3 3.3 0 0 0-.782-1.2 3.3 3.3 0 0 0-1.2-.781A5 5 0 0 0 9.567.04C8.845.008 8.613 0 6.774 0"/><path d="M6.776 3.297a3.479 3.479 0 1 0 0 6.957 3.479 3.479 0 0 0 0-6.957m0 5.737a2.258 2.258 0 1 1 0-4.516 2.258 2.258 0 0 1 0 4.516m3.615-5.062a.813.813 0 1 0 0-1.626.813.813 0 0 0 0 1.626"/></symbol><symbol id="arrow" viewBox="0 0 16 16"><path fill="currentColor" d="m13.53 6.53-5 5a.75.75 0 0 1-1.062 0l-5-5a.751.751 0 1 1 1.063-1.062L8 9.938l4.47-4.47a.751.751 0 0 1 1.06 1.062z"/></symbol><symbol id="mail" viewBox="0 0 20 20"><path fill="currentColor" fill-opacity=".4" d="M17.5 3.438h-15a.937.937 0 0 0-.937.937V15a1.563 1.563 0 0 0 1.562 1.563h13.75A1.563 1.563 0 0 0 18.438 15V4.375a.94.94 0 0 0-.938-.937M10 9.978 4.91 5.313h10.18zM7.25 10l-3.812 3.494V6.506zm1.387 1.272.73.67a.937.937 0 0 0 1.267 0l.73-.67 3.726 3.415H4.91zM12.75 10l3.812-3.494v6.988z"/></symbol><symbol id="check" viewBox="0 0 24 24"><path fill="currentColor" d="M12 2.25A9.75 9.75 0 1 0 21.75 12 9.76 9.76 0 0 0 12 2.25m4.28 8.03-5.25 5.25a.747.747 0 0 1-1.06 0l-2.25-2.25a.75.75 0 1 1 1.06-1.06l1.72 1.72 4.72-4.72a.751.751 0 0 1 1.06 1.06"/></symbol><symbol id="search" viewBox="0 0 24 24"><path fill="currentColor" d="m21.796 20.204-4.452-4.454a8.636 8.636 0 1 0-1.594 1.594l4.456 4.457a1.126 1.126 0 1 0 1.59-1.597zM4.125 10.5a6.375 6.375 0 1 1 6.375 6.375A6.38 6.38 0 0 1 4.125 10.5"/></symbol><symbol id="avatar" viewBox="0 0 24 24"><path fill="currentColor" d="M12 1.875A10.125 10.125 0 1 0 22.125 12 10.137 10.137 0 0 0 12 1.875M7.46 18.428a5.625 5.625 0 0 1 9.08 0 7.85 7.85 0 0 1-9.08 0m1.915-7.178a2.625 2.625 0 1 1 5.25 0 2.625 2.625 0 0 1-5.25 0m8.813 5.62a7.8 7.8 0 0 0-2.72-2.196 4.875 4.875 0 1 0-6.937 0 7.8 7.8 0 0 0-2.719 2.195 7.875 7.875 0 1 1 12.376.001z"/></symbol><symbol id="cart" viewBox="0 0 24 24"><path fill="currentColor" d="M9.375 20.25a1.875 1.875 0 1 1-3.75 0 1.875 1.875 0 0 1 3.75 0m7.875-1.875a1.875 1.875 0 1 0 0 3.75 1.875 1.875 0 0 0 0-3.75m4.825-11.294-2.558 8.316a2.61 2.61 0 0 1-2.51 1.853H7.775a2.64 2.64 0 0 1-2.525-1.904L2.045 4.125h-.92a1.125 1.125 0 0 1 0-2.25h1.202a1.88 1.88 0 0 1 1.803 1.36l.683 2.39H21a1.125 1.125 0 0 1 1.075 1.456m-2.598.794H5.455l1.959 6.853a.375.375 0 0 0 .36.272h9.233a.375.375 0 0 0 .36-.264z"/></symbol><symbol id="fb" viewBox="0 0 7 13"><path d="M1.87 12.17V6.62H0V4.46h1.87v-1.6C1.87 1.01 3 0 4.65 0c.79 0 1.47.06 1.67.09v1.93H5.17c-.9 0-1.07.43-1.07 1.05v1.39h2.14l-.28 2.16H4.1v5.55z"/></symbol><symbol id="twitter" viewBox="0 0 12 10"><path fill="currentColor" d="M11.17 1.05c-.42.18-.86.3-1.32.37.46-.28.84-.72 1-1.26-.44.26-.93.44-1.46.56C8.96.28 8.36 0 7.7 0 6.45 0 5.42 1.02 5.42 2.28c0 .19.02.35.07.51C3.6 2.7 1.9 1.79.76.39.58.74.47 1.12.47 1.54c0 .79.4 1.49 1.02 1.91-.37-.01-.72-.1-1.05-.27v.02c0 1.12.79 2.05 1.84 2.26-.19.05-.4.07-.61.07-.14 0-.3-.02-.44-.05.3.91 1.14 1.58 2.14 1.58-1.26.98-2.24 1.35-3.31 1.35-.19 0-.37 0-.54-.02 1.03.65 2.21 1.02 3.52 1.02 4.21 0 6.52-3.49 6.52-6.52v-.3c.44-.31.84-.7 1.14-1.17z"/></symbol><symbol id="Star2" viewBox="5 0 9 17"><path d="m3.36 16.72 5.43-3.02V0L6.17 5.64 0 6.39l4.55 4.23z"/></symbol><symbol id="Star1" viewBox="0 0 18 17"><path d="m8.79 0 2.62 5.64 6.17.75-4.55 4.23 1.2 6.1-5.44-3.02-5.43 3.02 1.2-6.1L0 6.39l6.17-.75z"/></symbol><symbol id="versace" viewBox="0 0 167 34"><path fill="currentColor" clip-rule="evenodd" d="M150.179.656h16.303v2.597a4.7 4.7 0 0 0-1.469-.242h-9.371v12.138h9.116a7.14 7.14 0 0 0 1.723-.194v2.586c-.413-.097-.982-.146-1.687-.146h-9.152v12.552h9.091c.499 0 1.093-.073 1.748-.231v2.792h-16.278c.13-.491.196-.997.195-1.505V2.197c0-.63-.073-1.153-.219-1.541m-3.774 8.266-4.71-.035c-.231-2.647-1.748-5.21-5.086-5.681-7.15-.644-9.165 7.209-8.983 12.951.183 5.535 1.068 14.045 8.449 14.045 3.096 0 6.069-3.181 5.972-5.864l4.358-.035c-.316 5.535-6.664 8.739-9.687 8.849-10.329.352-14.652-6.531-14.87-16.353C121.654 7.903 125.296 0 135.504 0c8.74.122 10.427 5.293 10.901 8.922M72.941 28.89l3.12-2.61c1.626 2.683 2.961 3.909 6.19 3.909 3.278 0 6.034-1.99 6.034-5.51 0-1.737-.705-3.157-2.1-4.225-.632-.498-2.234-1.36-4.76-2.561-3.774-1.808-7.452-4.164-7.452-8.897 0-5.973 5.074-8.607 10.427-8.802 3.168-.121 7.1 1.628 8.69 3.593l-3.168 2.44a6.62 6.62 0 0 0-5.826-3.495c-4.043 0-7.247 4.685-3.897 7.914.85.825 2.586 1.845 5.232 3.059 4.224 1.979 7.83 4.345 7.83 9.577a9.57 9.57 0 0 1-1.409 5.038c-1.88 3.107-5.025 4.661-9.42 4.661-5.05 0-6.044-1.153-9.492-4.09M28.489.656h16.29v2.597a4.7 4.7 0 0 0-1.469-.242h-9.37v12.138h9.115c.656 0 1.24-.072 1.724-.194v2.586c-.413-.097-.983-.146-1.674-.146H33.94v12.552h9.091a7.6 7.6 0 0 0 1.748-.231v2.792H28.514a6.5 6.5 0 0 0 .182-1.505V2.197c0-.63-.074-1.153-.207-1.541M0 .656h5.924v.292c0 .266.084.618.23 1.067l8.35 25.14 8.571-25.25c.134-.424.207-.836.207-1.25h2.877c-.292.51-.51.96-.644 1.36L15.731 31.21c-.097.28-.182.717-.254 1.3H10.62a8 8 0 0 0-.328-1.3L.704 2.246A49 49 0 0 0 0 .656zm62.915 16.606c3.884-.765 6.858-3.739 6.858-7.987 0-5.573-4.662-8.62-9.881-8.62H50.35c.133.486.206.996.206 1.53v28.792c0 .62-.073 1.142-.206 1.53h5.68a5.6 5.6 0 0 1-.206-1.53v-13.23l1.82.195 9.518 14.565h5.717zm-.984-2.427c-1.031.727-2.27 1.09-3.69 1.09h-2.428V2.976h2.173q2.786 0 4.334 1.383c1.408 1.276 2.124 3 2.124 5.16q0 3.496-2.513 5.317m58.97 16.35L110.293 1.712a3.9 3.9 0 0 1-.207-1.056h-4.589c0 .376-.061.776-.207 1.177L95.01 31.185a5.8 5.8 0 0 1-.644 1.323h2.962a3.809 3.809 0 0 1 .182-1.323l3.046-8.656h11.714l3.011 8.657c.158.472.23.91.23 1.322h6.143c-.353-.498-.607-.947-.753-1.323m-19.543-10.998 4.952-14.384 5.087 14.383z" fill-rule="evenodd"/></symbol><symbol id="calvine-klein" viewBox="0 0 207 34"><path fill="currentColor" clip-rule="evenodd" d="M16.648 30.452c-7.239 0-13.417-6.565-13.417-13.727 0-7.134 6.05-13.83 13.365-13.83 4.81 0 8.272 2.326 11.09 5.972h3.542c-1.06-1.914-2.197-3.671-3.93-5.042C24.327 1.421 20.475 0 16.649 0 7.471 0 0 7.575 0 16.7c0 9.15 7.575 16.648 16.7 16.648 3.723 0 7.368-1.37 10.29-3.67 1.835-1.474 3.127-3.387 4.369-5.352h-3.542c-2.793 3.645-6.36 6.126-11.169 6.126m36.71-17.45c-2.223-2.869-5.249-4.678-8.997-4.678-6.721 0-12.253 5.456-12.253 12.177s5.559 12.227 12.253 12.227c3.904 0 6.618-1.63 8.996-4.628v4.084h2.922V8.892h-2.922zM44.206 30.04c-5.146 0-9.204-4.472-9.204-9.512 0-5.016 4.033-9.514 9.204-9.514 5.144 0 9.15 4.499 9.15 9.514 0 5.04-4.033 9.512-9.15 9.512m15.613 2.145h3.13V.671h-3.13zm14.943-3.697-7.91-19.595H63.75l9.487 23.292h3.154l9.462-23.292h-3.05zm12.382 3.697h3.128V8.892h-3.128zm0-26.29h3.128V.67h-3.128zm16.598 2.429c-2.948 0-5.042 1.552-6.98 3.62v-3.05h-2.896v23.291h3.076V17.991c-.026-3.748 3.076-6.979 6.851-6.979 4.729 0 7.108 4.11 7.108 8.35v12.823h2.895V19.363c.001-6.05-3.54-11.04-10.054-11.04M142.829.67l-14.218 18.07V.671h-3.076v31.513h3.076v-8.66l4.033-5.015 10.263 13.675h3.905l-12.204-16.157L146.812.67zm5.119 31.513H151V.671h-3.052zm28.308-17.424c-2.12-3.956-6.36-6.437-10.833-6.437-6.668 0-12.305 5.559-12.305 12.228 0 6.72 5.688 12.176 12.359 12.176 3.178 0 6.308-1.267 8.607-3.464 1.397-1.319 2.224-2.973 2.972-4.705h-3.281c-1.656 3.232-4.577 5.48-8.353 5.48-2.299 0-4.548-.931-6.254-2.508-1.76-1.602-2.534-3.568-2.871-5.894h21.484c.002-2.43-.336-4.756-1.525-6.876m-19.854 4.188c.932-4.368 4.369-7.936 9.075-7.936 3.955 0 8.195 2.43 9.126 7.936zm23.655 13.236h3.075V8.892h-3.075zm0-26.187h3.075V.671h-3.075zm16.597 2.326c-3 0-5.094 1.552-7.059 3.62v-3.05h-2.947v23.291h3.103V17.991c-.026-3.774 3.154-6.979 6.953-6.979 4.707 0 7.189 4.11 7.189 8.35v12.823h2.895V19.363c0-6.05-3.595-11.04-10.134-11.04" fill-rule="evenodd"/></symbol><symbol id="zara" viewBox="0 0 91 38"><path fill="currentColor" d="M86.332 36.868 72.85.032l-.009-.024h-.266l-2.776 7.57-5.055 13.78-.012-.01c-1.751-1.534-4.223-2.493-7.335-2.85l-.95-.098.942-.12c5.133-.915 8.583-4.132 8.583-8.008 0-5.315-5.037-9.024-12.253-9.024H38.705v.269h4.363V28.98L32.473.032l-.01-.024h-.266l-2.776 7.57-10.709 29.195-.066.008a12 12 0 0 1-1.348.087H6.478L27.045 1.517l.153-.266H2.043v10.936h.267c.047-5.327 3.173-10.67 10.08-10.67h8.333L0 37.133h27.917V26.656h-.267c-.036 4.643-2.688 9.052-8.455 10.048l-.184.03 4.393-11.98h12.304l4.433 12.114h-4.373v.265h17.165v-.265h-4.392V18.596h5.068c5.157 0 8.115 2.286 8.115 6.27v3.242c0 .357.025.88.052 1.316v.016l-2.724 7.427h-3.559v.264h7.367v-.264h-3.52l2.48-6.763.008.105.068.61.066.402c.414 2.494 1.375 4.327 2.856 5.448l.213.154c1.124.776 2.522 1.17 4.157 1.17 2.165 0 3.608-.536 4.8-1.797l-.156-.146c-1.098 1.006-2.02 1.413-3.174 1.413-1.968 0-2.997-2.368-2.997-4.703v-4.54a10.1 10.1 0 0 0-.526-3.317l-.05-.14v-.006h9L80.52 36.87h-4.374v.265H91v-.265zM23.502 24.49l6.06-16.525L35.61 24.49zm25.042-6.16V1.517h3.868c5.168 0 7.896 3.048 7.896 8.812 0 6.13-1.566 8-6.699 8zm18.437 6.16-.026-.066a8.2 8.2 0 0 0-1.716-2.598l-.253-.252-.027-.025 4.978-13.584 6.048 16.525z"/><defs><clipPath id="a"><path fill="#fff" d="M0 0h91v38H0z"/></clipPath></defs></symbol><symbol id="prada" viewBox="0 0 194 32"><path stroke-width="1.024" stroke="currentColor" fill="currentColor" clip-rule="evenodd" d="m0 .902 2.932 3.306v24.203L.76 31.577l13.31.02-2.4-2.913-.249-8.716 12.834.07c3.89-1.296 7.888-4.056 8.08-9.638-.061-5.41-3.364-8.88-7.198-9.57zM10.945 2.45v15.548l9.846.07c2.24-1.806 3.939-3.19 3.87-7.527-.031-3.537-.778-6.62-4.074-8.09zM38.494.725l2.932 3.308v24.202l-2.173 3.168 13.308.02-2.399-2.915-.249-8.716h.054l13.75 11.729 11.41-.094-10.414-9.008h-8.694l-3.065-2.61 9.792.053c3.89-1.295 7.888-4.056 8.081-9.638-.06-5.409-3.363-8.879-7.198-9.568zm10.944 1.548v15.548l9.846.071c2.241-1.806 3.939-3.19 3.87-7.528-.031-3.536-.778-6.621-4.074-8.09zM86.113.691H97.59l14.939 27.72c.646 2.14 2.58 1.876 3.87 2.814h-14.463l2.173-.68-.136-2.063-3.735-5.98-12.698.07-2.716 5.77c-.09.656-.792 1.154-.272 1.97l1.02.984-6.248-.141 2.717-.844 10.252-21.6V7.235l-4.331-5.779zm2.229 19.907 5.274-9.986 5.491 9.93zM163.715.75h11.475l14.939 27.72c.647 2.14 2.58 1.877 3.871 2.815h-14.464l2.173-.681-.136-2.064-3.734-5.98-12.698.072-2.716 5.768c-.092.657-.793 1.156-.273 1.97l1.019.985-6.246-.14 2.717-.844 10.252-21.6V7.293l-4.332-5.777zm2.229 19.908 5.274-9.985 5.491 9.927zM120.367.402l20.443.113c6.584 1.542 10.772 5.564 12.071 12.58l-.055 5.472c-1.2 6.252-5.133 10.565-12.07 12.749l-20.498.057-.003-.662c3.117-.236 3.366-.591 3.374-2.441V3.335c-.035-1.368-.309-2.22-3.317-2.313zm11.621 2.134-.02 26.977c2.696.01 5.035.262 6.357-.412 2.994-1.368 4.385-3.468 4.512-5.441l-.072-15.93c.001-2.548-2.765-4.347-4.361-4.816-1.142-.423-3.421-.44-6.416-.378z" fill-rule="evenodd" stroke-miterlimit="2.613"/><defs><clipPath id="a1"><path fill="#fff" d="M0 0h194v32H0z"/></clipPath></defs></symbol><symbol id="gucci" viewBox="0 0 156 36"><path d="m141.31 11.29-.29.1c-1.13-2.35-2.75-4.21-4.86-5.6-2.07-1.38-4.68-2.08-7.82-2.08-1.75 0-3.42.35-5 1.06-1.59.68-2.98 1.65-4.18 2.91-1.17 1.24-2.11 2.73-2.82 4.49s-1.07 3.7-1.07 5.83.36 4.07 1.07 5.83 1.65 3.27 2.82 4.53c1.2 1.23 2.59 2.19 4.18 2.87 1.59.68 3.25 1.02 5 1.02 3.11 0 5.64-.46 7.58-1.39 1.97-.95 3.64-2.4 5-4.35l.29.1-.1 2.96c-.74.74-1.6 1.4-2.57 1.99-.97.55-2.03 1.03-3.16 1.43-1.1.37-2.25.65-3.45.84-1.2.21-2.4.32-3.59.32-2.49 0-4.88-.39-7.14-1.16s-4.26-1.85-5.98-3.24a15.954 15.954 0 0 1-4.08-5.08c-1-2-1.5-4.22-1.5-6.66s.5-4.64 1.5-6.61c1-2 2.36-3.72 4.08-5.14 1.72-1.41 3.71-2.5 5.98-3.23 2.27-.77 4.65-1.16 7.14-1.16 1.2 0 2.4.1 3.59.28 1.2.18 2.35.48 3.45.88 1.13.37 2.19.85 3.16 1.43.97.56 1.83 1.21 2.57 1.95zM34.25 20.13c-.35.15-.7.35-1.02.6-.32.25-.48.59-.48 1.02v5.69c-1.55 2.13-3.55 3.78-5.98 4.95-2.43 1.17-5.12 1.76-8.06 1.76-2.49 0-4.88-.39-7.15-1.16-2.26-.77-4.25-1.85-5.97-3.24a15.687 15.687 0 0 1-4.08-5.08C.5 22.66 0 20.44 0 18s.5-4.64 1.5-6.61c1-2 2.37-3.72 4.09-5.14 1.71-1.41 3.7-2.5 5.97-3.23 2.27-.77 4.65-1.16 7.14-1.16 1.2 0 2.4.1 3.6.28 1.2.18 2.35.48 3.45.88 1.13.37 2.18.85 3.16 1.43.97.56 1.83 1.21 2.57 1.95l.19 4.9-.29.1c-1.13-2.35-2.75-4.21-4.86-5.6-2.07-1.38-4.68-2.08-7.82-2.08-1.75 0-3.42.35-5 1.06A12.39 12.39 0 0 0 9.52 7.7c-1.17 1.23-2.11 2.73-2.82 4.48-.71 1.76-1.07 3.7-1.07 5.83 0 2.1.34 4.02 1.02 5.78.71 1.76 1.65 3.27 2.82 4.53 1.2 1.24 2.59 2.21 4.18 2.92 1.59.68 3.27 1.01 5.05 1.01 3.37 0 6.25-.62 8.65-1.85v-8.65c0-.43-.18-.77-.54-1.02-.32-.25-.65-.45-.97-.6l.04-.23c.16.03.46.06.88.09s.86.06 1.31.09h4.18c.39-.03.76-.06 1.12-.09.35-.03.63-.06.82-.09zm35.19-17.3c-.32.15-.65.35-.97.6-.32.25-.5.71-.53 1.39-.03.74-.06 1.68-.1 2.82 0 1.11-.01 2.37-.04 3.79 0 1.42-.01 2.96-.04 4.63v5.18c-.03 2-.29 3.71-.78 5.13-.49 1.42-1.13 2.61-1.94 3.56-.78.96-1.65 1.71-2.63 2.27-.94.55-1.87.97-2.81 1.25-.91.31-1.77.49-2.58.55-.81.09-1.44.14-1.89.14a20.6 20.6 0 0 1-5.35-.69c-1.71-.43-3.22-1.14-4.52-2.13-1.3-1-2.33-2.27-3.11-3.84-.78-1.57-1.16-3.48-1.16-5.74V11.7c0-1.48-.01-2.8-.04-3.98 0-1.2-.01-2.17-.04-2.91-.03-.68-.21-1.14-.54-1.39-.32-.25-.65-.45-.97-.6l.04-.23c.16.03.42.06.78.09l1.16.09c.43 0 .83.01 1.22.04h1.75c.39-.03.79-.04 1.21-.04.42-.03.81-.06 1.17-.09.39-.03.66-.06.82-.09l.05.23c-.36.15-.7.35-1.02.6-.29.25-.45.71-.49 1.39-.03.7-.06 1.71-.1 2.91v14.01c0 3.36.83 5.85 2.48 7.45s4.1 2.41 7.34 2.41c.94 0 2.01-.11 3.2-.33 1.2-.24 2.32-.74 3.36-1.48 1.06-.74 1.96-1.79 2.67-3.14.74-1.36 1.12-3.16 1.12-5.42 0-2.43-.01-4.52-.04-6.24 0-1.76-.02-3.25-.05-4.49a100.915 100.915 0 0 0-.14-5.69c-.03-.68-.21-1.14-.53-1.39-.33-.25-.65-.45-.97-.6l.04-.23c.36.06.76.12 1.22.18a18.845 18.845 0 0 0 2.48 0c.48-.06.91-.12 1.26-.18zm35.26 8.46-.29.1c-1.14-2.35-2.75-4.21-4.86-5.6-2.07-1.38-4.68-2.08-7.82-2.08-1.75 0-3.42.35-5 1.06-1.59.68-2.98 1.65-4.18 2.91-1.17 1.24-2.11 2.73-2.82 4.49-.71 1.76-1.07 3.7-1.07 5.83s.36 4.07 1.07 5.83c.71 1.76 1.65 3.27 2.82 4.53 1.2 1.23 2.59 2.19 4.18 2.87 1.59.68 3.25 1.02 5 1.02 3.11 0 5.64-.46 7.58-1.39 1.97-.95 3.64-2.4 5-4.35l.29.1-.1 2.96c-.74.74-1.6 1.4-2.57 1.99-.97.55-2.03 1.03-3.16 1.43-1.1.37-2.25.65-3.45.84-1.2.21-2.4.32-3.59.32-2.49 0-4.88-.39-7.14-1.16s-4.26-1.85-5.98-3.24a15.954 15.954 0 0 1-4.08-5.08c-1-2-1.5-4.22-1.5-6.66s.5-4.64 1.5-6.61c1-2 2.37-3.72 4.09-5.14 1.71-1.41 3.7-2.5 5.97-3.23 2.27-.77 4.65-1.16 7.14-1.16 1.2 0 2.4.1 3.6.28 1.2.18 2.35.48 3.45.88 1.13.37 2.19.85 3.16 1.43.97.56 1.83 1.21 2.57 1.95zm51.26 22.06a8.98 8.98 0 0 0-.83-.09c-.35 0-.74-.01-1.16-.04-.42 0-.83-.01-1.22-.04h-2.91l-1.17.09c-.36.03-.63.06-.83.09l-.04-.18c.32-.16.65-.36.97-.6.32-.25.5-.71.53-1.39.03-.74.05-1.51.05-2.31.03-.8.04-1.71.04-2.73V9.82c0-1.02-.02-1.91-.04-2.68 0-.8-.02-1.57-.05-2.31-.03-.68-.21-1.14-.53-1.39a4.57 4.57 0 0 0-.97-.65l.05-.18c.19.06.47.11.83.14.39 0 .77.01 1.16.04.42.03.83.04 1.21.04h1.7c.39-.03.79-.04 1.22-.04.42-.03.81-.06 1.16-.09.39-.03.66-.06.83-.09z"/></symbol></defs></svg>